<?xml version="1.0" encoding="UTF-8"?>
<svg version="1.1" xmlns="http://www.w3.org/2000/svg" width="331" height="83">
<path d="M0 0 C3.78902377 0.71044196 4.74098864 1.44359915 7 4.5625 C7.55300997 7.61371737 7.46534721 10.61108331 7.390625 13.703125 C7.38496521 14.58530701 7.37930542 15.46748901 7.37347412 16.37640381 C7.35111591 19.18899213 7.30092132 22.00029795 7.25 24.8125 C7.22993425 26.72133574 7.21168361 28.63019149 7.1953125 30.5390625 C7.151253 35.21403445 7.08222984 39.88804992 7 44.5625 C8.2849667 43.44789587 9.5685564 42.33170414 10.8515625 41.21484375 C11.56650879 40.59343506 12.28145508 39.97202637 13.01806641 39.33178711 C14.52407618 37.98736079 15.9661517 36.57092325 17.375 35.125 C19 33.5625 19 33.5625 21 33.5625 C21.226875 32.985 21.45375 32.4075 21.6875 31.8125 C23.42027339 28.84203134 25.07533544 27.38229128 28 25.5625 C31.625 25.0625 31.625 25.0625 35 25.5625 C37.34949004 27.60883004 37.87878102 28.97155746 38.5 32 C37.78218254 35.67881448 35.69866354 36.98533155 33 39.5625 C31.95951376 40.59752741 30.92183275 41.63538115 29.88671875 42.67578125 C26.92447917 45.63802083 23.96223958 48.60026042 21 51.5625 C21.66 52.18125 22.32 52.8 23 53.4375 C25 55.5625 25 55.5625 25 57.5625 C25.66 57.5625 26.32 57.5625 27 57.5625 C27 58.2225 27 58.8825 27 59.5625 C27.66 59.5625 28.32 59.5625 29 59.5625 C29 60.2225 29 60.8825 29 61.5625 C29.66 61.5625 30.32 61.5625 31 61.5625 C31 62.2225 31 62.8825 31 63.5625 C31.66 63.5625 32.32 63.5625 33 63.5625 C33 64.2225 33 64.8825 33 65.5625 C33.66 65.5625 34.32 65.5625 35 65.5625 C37.36499307 67.92749307 37.96969488 69.26550985 38.3125 72.625 C38 75.5625 38 75.5625 36 78.5625 C32.77214217 79.10959455 31.07740223 79.3500022 28 78.5625 C25.94505307 77.03094247 24.36821475 75.36729445 22.67578125 73.4453125 C21.0791164 71.65139069 19.44979035 70.22624117 17.5625 68.75 C16.2940625 67.6671875 16.2940625 67.6671875 15 66.5625 C15 65.9025 15 65.2425 15 64.5625 C14.34 64.5625 13.68 64.5625 13 64.5625 C13 63.9025 13 63.2425 13 62.5625 C11.35 62.5625 9.7 62.5625 8 62.5625 C7.96261719 63.46613281 7.92523438 64.36976562 7.88671875 65.30078125 C7.82097656 66.48027344 7.75523437 67.65976563 7.6875 68.875 C7.62949219 70.04675781 7.57148438 71.21851562 7.51171875 72.42578125 C6.97932339 75.68924288 6.6278098 76.67152024 4 78.5625 C1.33234452 79.71848404 0.20125898 79.62000257 -2.625 78.8125 C-5 77.5625 -5 77.5625 -7 74.5625 C-7.26742554 71.61587524 -7.26742554 71.61587524 -7.29052734 67.96728516 C-7.29724457 67.30188217 -7.30396179 66.63647919 -7.31088257 65.95091248 C-7.32988113 63.75105319 -7.33378773 61.55149872 -7.3359375 59.3515625 C-7.34236451 57.82083002 -7.3490928 56.29009878 -7.35610962 54.7593689 C-7.36808726 51.54983676 -7.37178999 48.34041229 -7.37060547 45.13085938 C-7.37040233 41.02267718 -7.39769625 36.91518717 -7.43214989 32.80716896 C-7.45441368 29.64495691 -7.45844317 26.48291152 -7.45738602 23.32062912 C-7.45974309 21.80638622 -7.46857268 20.2921388 -7.48405075 18.77797318 C-7.50370028 16.65699407 -7.49787858 14.53750828 -7.48583984 12.41650391 C-7.48868988 11.21087799 -7.49153992 10.00525208 -7.49447632 8.76309204 C-6.7478817 3.93061636 -4.92766827 0.9239378 0 0 Z " fill="#303B4F" transform="translate(255,3.4375)"/>
<path d="M0 0 C2.09417568 3.02823774 2.23737469 5.58577627 2.1953125 9.203125 C2.18564453 10.67265625 2.18564453 10.67265625 2.17578125 12.171875 C2.15902344 13.18765625 2.14226562 14.2034375 2.125 15.25 C2.11597656 16.28125 2.10695313 17.3125 2.09765625 18.375 C2.07412011 20.91690287 2.04124023 23.4583328 2 26 C3.28970703 25.51660156 3.28970703 25.51660156 4.60546875 25.0234375 C12.53525081 22.63264015 20.81089489 23.02766059 28.1875 26.8515625 C30.50269982 28.31852101 32.32928391 29.8208051 34 32 C34 32.66 34 33.32 34 34 C34.66 34 35.32 34 36 34 C40.42700267 41.26476042 40.59115416 48.47134571 40.46655273 56.75878906 C40.43726592 58.89205038 40.44604147 61.02286843 40.45898438 63.15625 C40.41188779 73.45324124 40.41188779 73.45324124 38.59008789 75.87158203 C36.63359618 77.26002126 35.40182296 77.78807444 33 78 C30.3125 77.1875 30.3125 77.1875 28 76 C26.64872006 73.29744013 26.82032806 71.09674645 26.75390625 68.07421875 C26.72103516 66.88505859 26.68816406 65.69589844 26.65429688 64.47070312 C26.59338537 61.96037168 26.53605939 59.44995052 26.48242188 56.93945312 C26.44826172 55.74642578 26.41410156 54.55339844 26.37890625 53.32421875 C26.3538501 52.23197998 26.32879395 51.13974121 26.30297852 50.0144043 C25.91766627 46.18084238 25.01950286 43.24113392 22.5625 40.25 C19.04875162 37.4390013 15.29499813 37.70881369 11 38 C6.55276964 39.57375083 6.55276964 39.57375083 3.85131836 43.22241211 C2.89206845 46.35214717 2.72876137 48.98252546 2.69140625 52.25390625 C2.66626953 53.43791016 2.64113281 54.62191406 2.61523438 55.84179688 C2.58002351 58.32611889 2.54878571 60.81050034 2.52148438 63.29492188 C2.49505859 64.47763672 2.46863281 65.66035156 2.44140625 66.87890625 C2.42122437 68.49647827 2.42122437 68.49647827 2.40063477 70.14672852 C1.95474684 73.32228744 1.21391417 74.71596951 -1 77 C-3.83568858 77.66259654 -6.04239226 77.28167693 -9 77 C-11.86634821 74.13365179 -11.26667634 72.13443544 -11.29052734 68.11938477 C-11.29724457 67.41190094 -11.30396179 66.70441711 -11.31088257 65.97549438 C-11.32992082 63.63072741 -11.33378958 61.28624575 -11.3359375 58.94140625 C-11.34236118 57.31477235 -11.34908921 55.68813962 -11.35610962 54.06150818 C-11.3680968 50.64929525 -11.37178895 47.23718368 -11.37060547 43.82495117 C-11.37040215 39.4486414 -11.39771098 35.07298007 -11.43214989 30.69682407 C-11.45436734 27.33653264 -11.45844461 23.97639856 -11.45738602 20.61604118 C-11.45974951 19.00245871 -11.46861499 17.38887239 -11.48405075 15.77536201 C-11.50360871 13.51978022 -11.49791457 11.26561347 -11.48583984 9.01000977 C-11.4901149 7.08379539 -11.4901149 7.08379539 -11.49447632 5.1186676 C-11 2 -11 2 -9.19619751 0.05796814 C-5.83017432 -1.56353688 -3.52560241 -0.979334 0 0 Z " fill="#2D394B" transform="translate(93,5)"/>
<path d="M0 0 C2.89706117 1.32605487 2.89706117 1.32605487 5.26171875 0.0859375 C11.07681286 -2.22019112 18.53601275 -1.99508951 24.515625 -0.27734375 C31.50198474 3.0158449 35.56833557 8.25923059 39 15 C40.80037145 20.3915379 40.2244294 26.32975139 40.24023438 31.9543457 C40.24998449 34.05915192 40.28105537 36.16299891 40.3125 38.26757812 C40.31902661 39.60676506 40.32427843 40.94595894 40.328125 42.28515625 C40.3374707 43.50082275 40.34681641 44.71648926 40.35644531 45.96899414 C40 49 40 49 38.60058594 50.87280273 C36.00817685 52.69848192 34.01317757 53.11919736 30.875 52.75 C29 52 29 52 27 49 C26.76049805 46.0925293 26.76049805 46.0925293 26.76171875 42.57421875 C26.74560547 41.30255859 26.72949219 40.03089844 26.71289062 38.72070312 C26.69107382 36.04309714 26.69072459 33.36735363 26.69726562 30.68945312 C26.83716087 22.95462832 26.83716087 22.95462832 23.73046875 16.14453125 C19.76116834 13.02701204 16.92796857 12.78940305 12 13 C8.10441126 13.36056395 8.10441126 13.36056395 5 15 C3.14130932 19.24506213 2.74191644 23.00573988 2.69140625 27.60546875 C2.66626953 28.83587891 2.64113281 30.06628906 2.61523438 31.33398438 C2.57991847 33.9146611 2.548705 36.49539706 2.52148438 39.07617188 C2.49505859 40.30271484 2.46863281 41.52925781 2.44140625 42.79296875 C2.42795166 43.9121167 2.41449707 45.03126465 2.40063477 46.18432617 C2 49 2 49 0.62475586 50.8371582 C-1.59535886 52.42609981 -3.28442407 52.80129932 -6 53 C-8.70637529 52.02269781 -9.70256222 51.59487555 -11 49 C-11.09974811 47.50457513 -11.13830915 46.00483527 -11.14526367 44.50610352 C-11.15164352 43.57496231 -11.15802338 42.64382111 -11.16459656 41.6844635 C-11.16570938 40.67612961 -11.1668222 39.66779572 -11.16796875 38.62890625 C-11.17129715 37.59563705 -11.17462555 36.56236786 -11.17805481 35.49778748 C-11.1831238 33.30964606 -11.18546314 31.12149689 -11.18530273 28.93334961 C-11.18748873 25.57978624 -11.20564354 22.22655197 -11.22460938 18.87304688 C-11.22754335 16.75000113 -11.22952812 14.62695382 -11.23046875 12.50390625 C-11.23765427 11.49759659 -11.24483978 10.49128693 -11.25224304 9.45448303 C-11.2476281 8.05304298 -11.2476281 8.05304298 -11.24291992 6.62329102 C-11.24434494 5.80103531 -11.24576996 4.9787796 -11.24723816 4.13160706 C-11 2 -11 2 -9 -1 C-5.19670633 -2.26776456 -3.68257359 -1.3809651 0 0 Z " fill="#293548" transform="translate(204,30)"/>
<path d="M0 0 C1.63001953 0.01353516 1.63001953 0.01353516 3.29296875 0.02734375 C4.12441406 0.03894531 4.95585937 0.05054688 5.8125 0.0625 C5.70550781 0.63097656 5.59851563 1.19945312 5.48828125 1.78515625 C5.36839844 2.55730469 5.24851562 3.32945313 5.125 4.125 C4.93357422 5.25615234 4.93357422 5.25615234 4.73828125 6.41015625 C4.92556406 13.10305229 8.78457463 17.69537827 13.1875 22.3125 C13.65671875 22.828125 14.1259375 23.34375 14.609375 23.875 C17.41875238 26.88615587 20.17617623 29.13194265 23.8125 31.0625 C23.49543386 34.07800139 22.8682876 35.01141856 20.58984375 37.09765625 C12.32485118 42.99797419 5.27110946 47.58375229 -5.1875 46.0625 C-12.26721575 44.26311687 -17.38048268 41.39918015 -21.1875 35.0625 C-24.39305485 28.72210107 -24.71714972 22.95769027 -23.1875 16.0625 C-20.51934237 8.99188228 -15.52454893 4.91983413 -9.1875 1.0625 C-5.90230525 -0.03256492 -3.45086585 -0.03710608 0 0 Z " fill="#5D92EB" transform="translate(24.1875,3.9375)"/>
<path d="M0 0 C9.37310606 7.11931818 9.37310606 7.11931818 11 12 C11.66 12 12.32 12 13 12 C14.70401547 14.60614131 15.00613718 15.89975932 14.8125 19.0625 C13.9576183 22.15322616 13.45925423 23.06765818 11 25 C9.07167053 25.38768005 9.07167053 25.38768005 6.86743164 25.40405273 C6.03969742 25.41673691 5.2119632 25.42942108 4.35914612 25.44248962 C3.46847946 25.43955399 2.57781281 25.43661835 1.66015625 25.43359375 C0.7416539 25.4388356 -0.17684845 25.44407745 -1.1231842 25.44947815 C-3.0657551 25.45590159 -5.00836487 25.45455719 -6.95092773 25.44604492 C-9.92306859 25.43754129 -12.8932838 25.46628106 -15.86523438 25.49804688 C-17.75260359 25.49965913 -19.63997621 25.49908089 -21.52734375 25.49609375 C-22.41598618 25.50732773 -23.3046286 25.51856171 -24.22019958 25.53013611 C-30.38060504 25.46058332 -30.38060504 25.46058332 -33.55664062 23.09887695 C-35.653641 20.04950074 -35.62353156 17.98690626 -35.4453125 14.375 C-34.38704203 8.73089082 -31.10195821 4.58125216 -26.625 1.125 C-18.33491346 -4.20434134 -8.68089456 -4.501724 0 0 Z " fill="#2A364A" transform="translate(36,57)"/>
<path d="M0 0 C5.02515808 3.2177903 9.2502875 7.20407735 11 13 C11.82874592 20.41675144 11.5900059 26.88946582 7 33 C2.29106914 37.70893086 -2.6843588 40.81914684 -9.4375 41.1875 C-10.7059375 41.0946875 -10.7059375 41.0946875 -12 41 C-11.835 40.484375 -11.67 39.96875 -11.5 39.4375 C-10.5765795 34.93582504 -10.30423665 31.30455629 -12.5 27.1875 C-12.995 26.465625 -13.49 25.74375 -14 25 C-14 24.34 -14 23.68 -14 23 C-14.66 23 -15.32 23 -16 23 C-17.35386936 21.34997172 -18.68678142 19.6825613 -20 18 C-20.66 17.67 -21.32 17.34 -22 17 C-22 16.34 -22 15.68 -22 15 C-22.61875 14.731875 -23.2375 14.46375 -23.875 14.1875 C-26 13 -26 13 -28 10 C-25.7524911 8.37145746 -23.50215838 6.74709026 -21.25 5.125 C-20.29867187 4.43470703 -20.29867187 4.43470703 -19.328125 3.73046875 C-12.3283847 -1.30059459 -8.51918586 -3.12923619 0 0 Z " fill="#2A3649" transform="translate(65,41)"/>
<path d="M0 0 C1.21107422 -0.02384766 2.42214844 -0.04769531 3.66992188 -0.07226562 C11.02892397 -0.06018188 15.29502884 0.40613986 20.6875 5.5625 C23.63687259 9.93898836 24.24801797 13.33099896 23.6875 18.5625 C21.9430656 23.4081511 19.28971213 27.13114265 14.6875 29.5625 C9.63760975 31.01740975 5.24328411 31.19308833 0.4375 28.9375 C-3.15821838 26.83268924 -6.29298366 24.43104052 -9.3125 21.5625 C-9.3125 20.9025 -9.3125 20.2425 -9.3125 19.5625 C-9.9725 19.5625 -10.6325 19.5625 -11.3125 19.5625 C-14.71101899 15.73916614 -17.04901626 12.67036994 -17.6875 7.5625 C-16.52274817 -1.75551462 -7.20590939 -0.06457589 0 0 Z " fill="#53AFE9" transform="translate(50.3125,3.4375)"/>
<path d="M0 0 C1.8125 1.5625 1.8125 1.5625 3 3 C3.94875 2.505 4.8975 2.01 5.875 1.5 C10.39715374 -0.43806589 15.15452123 -0.86405391 20 0 C21.7734375 1.3046875 21.7734375 1.3046875 23 3 C23.65233491 9.08845916 23.65233491 9.08845916 21.8203125 11.6484375 C19.42362478 13.42795241 17.44045516 13.69025529 14.5 14.125 C11.50997268 14.58314935 8.87645877 15.04118041 6 16 C2.43764613 24.31215902 2.92016352 33.04685846 3.21484375 41.88085938 C3.32274288 48.40875674 3.32274288 48.40875674 1.60546875 51.5546875 C-0.38721167 53.34858471 -1.2996326 53.92284665 -4 54 C-6.01825314 53.03737117 -8.02038465 52.03977068 -10 51 C-10.12659286 44.07677698 -10.21426365 37.15385138 -10.2746582 30.22973633 C-10.2998299 27.87350308 -10.33396993 25.51734812 -10.37719727 23.16137695 C-10.43772985 19.77796134 -10.46618345 16.39557628 -10.48828125 13.01171875 C-10.51408768 11.95538742 -10.5398941 10.89905609 -10.56648254 9.81071472 C-10.56752069 7.11459081 -10.53168813 4.64305739 -10 2 C-6.63705652 -1.12077546 -4.2994263 -1.58399916 0 0 Z " fill="#2B3649" transform="translate(308,29)"/>
<path d="M0 0 C2.62793597 0.0473502 3.9451679 0.15751492 6.3125 1.375 C7.2096875 1.808125 7.2096875 1.808125 8.125 2.25 C8.82625 1.96125 9.5275 1.6725 10.25 1.375 C14.43961677 -0.26441526 18.67142492 -0.2632934 23.125 0.25 C26.125 2.25 26.125 2.25 26.9375 5.125 C27.13868691 8.47811521 27.06405696 9.57487043 25.125 12.25 C22.4453125 13.19140625 22.4453125 13.19140625 19.25 13.8125 C15.13343454 14.62671012 12.15743757 15.25155837 9.125 18.25 C7.18402873 22.14611648 6.91747275 25.21716001 7.03515625 29.5390625 C7.05513672 30.72757813 7.07511719 31.91609375 7.09570312 33.140625 C7.1570954 35.63811484 7.22222314 38.13551554 7.29101562 40.6328125 C7.30970703 41.81875 7.32839844 43.0046875 7.34765625 44.2265625 C7.37609619 45.31018066 7.40453613 46.39379883 7.43383789 47.51025391 C7.125 50.25 7.125 50.25 5.75952148 52.07177734 C3.48948044 53.70810566 1.92411857 54.11670864 -0.875 54.25 C-3.625 53.0625 -3.625 53.0625 -5.875 51.25 C-6.88004624 48.36598776 -6.98244765 45.73182233 -6.9284668 42.69677734 C-6.9148259 41.80260101 -6.901185 40.90842468 -6.88713074 39.9871521 C-6.86636978 39.02975128 -6.84560883 38.07235046 -6.82421875 37.0859375 C-6.79591728 35.60330917 -6.79591728 35.60330917 -6.76704407 34.09072876 C-6.72521607 32.0044375 -6.68048424 29.91820272 -6.63305664 27.83203125 C-6.56261707 24.63032141 -6.5084126 21.42859736 -6.45507812 18.2265625 C-6.41244935 16.20049974 -6.36886245 14.17445686 -6.32421875 12.1484375 C-6.30953049 11.18698822 -6.29484222 10.22553894 -6.27970886 9.23495483 C-6.25661148 8.34708282 -6.2335141 7.45921082 -6.2097168 6.54443359 C-6.19337692 5.76151947 -6.17703705 4.97860535 -6.16020203 4.17196655 C-5.56880539 0.18656514 -3.75712913 0.24239543 0 0 Z " fill="#253043" transform="translate(143.875,28.75)"/>
<path d="M0 0 C2.875 0.875 2.875 0.875 4.875 2.875 C5.80508201 5.67900108 6.00910235 8.27175354 6.03613281 11.21289062 C6.04574036 12.06057007 6.0553479 12.90824951 6.06524658 13.78161621 C6.06949646 14.68899536 6.07374634 15.59637451 6.078125 16.53125 C6.08382507 17.47053345 6.08952515 18.40981689 6.09539795 19.37756348 C6.10483223 21.36123533 6.11137568 23.34492275 6.11523438 25.32861328 C6.12496436 28.36388294 6.15601238 31.39848221 6.1875 34.43359375 C6.19402806 36.36197515 6.1992793 38.29036138 6.203125 40.21875 C6.2154718 41.12612915 6.2278186 42.0335083 6.24053955 42.96838379 C6.21829507 49.25147868 6.21829507 49.25147868 4.47167969 52.42382812 C2.52688191 54.19139357 1.50539345 54.72027097 -1.125 54.875 C-3.8125 54.0625 -3.8125 54.0625 -6.125 52.875 C-7.30772683 50.50954634 -7.27025869 49.03609609 -7.30200195 46.39697266 C-7.31483719 45.46905914 -7.32767242 44.54114563 -7.34089661 43.58511353 C-7.34828354 42.57991669 -7.35567047 41.57471985 -7.36328125 40.5390625 C-7.371353 39.50816498 -7.37942474 38.47726746 -7.38774109 37.41513062 C-7.40158645 35.23119797 -7.41230657 33.04724364 -7.42016602 30.86328125 C-7.43739477 27.52041783 -7.48127932 24.17853915 -7.52539062 20.8359375 C-7.53551593 18.71615312 -7.54403254 16.59636032 -7.55078125 14.4765625 C-7.56828934 13.47541412 -7.58579742 12.47426575 -7.60383606 11.44277954 C-7.58222494 4.54172796 -7.58222494 4.54172796 -5.29370117 1.20458984 C-3.125 -0.125 -3.125 -0.125 0 0 Z " fill="#2D3749" transform="translate(182.125,28.125)"/>
<path d="M0 0 C2 1.375 2 1.375 4 3 C4 3.66 4 4.32 4 5 C4.66 5 5.32 5 6 5 C10.42700267 12.26476042 10.59115416 19.47134571 10.46655273 27.75878906 C10.43726592 29.89205038 10.44604147 32.02286843 10.45898438 34.15625 C10.41188779 44.45324124 10.41188779 44.45324124 8.59008789 46.87158203 C6.63359618 48.26002126 5.40182296 48.78807444 3 49 C0.3125 48.1875 0.3125 48.1875 -2 47 C-3.35127994 44.29744013 -3.17967194 42.09674645 -3.24609375 39.07421875 C-3.27896484 37.88505859 -3.31183594 36.69589844 -3.34570312 35.47070312 C-3.40661463 32.96037168 -3.46394061 30.44995052 -3.51757812 27.93945312 C-3.55173828 26.74642578 -3.58589844 25.55339844 -3.62109375 24.32421875 C-3.6461499 23.23197998 -3.67120605 22.13974121 -3.69702148 21.0144043 C-4.18240867 16.18517332 -5.53600843 13.30653741 -9 10 C-9 8 -9 8 -6.6875 5.4375 C-4 3 -4 3 -1 2 C-0.67 1.34 -0.34 0.68 0 0 Z " fill="#333E50" transform="translate(123,34)"/>
<path d="M0 0 C1.21107422 -0.02384766 2.42214844 -0.04769531 3.66992188 -0.07226562 C11.02892397 -0.06018188 15.29502884 0.40613986 20.6875 5.5625 C23.63687259 9.93898836 24.24801797 13.33099896 23.6875 18.5625 C21.95624056 23.371554 19.3036821 27.20206049 14.6875 29.5625 C11.3525096 30.24046516 8.08617308 30.4886158 4.6875 30.5625 C4.6875 29.9025 4.6875 29.2425 4.6875 28.5625 C6.9975 28.5625 9.3075 28.5625 11.6875 28.5625 C11.7803125 27.634375 11.7803125 27.634375 11.875 26.6875 C12.6875 24.5625 12.6875 24.5625 15.125 23.375 C15.970625 23.106875 16.81625 22.83875 17.6875 22.5625 C18.3475 22.2325 19.0075 21.9025 19.6875 21.5625 C20.37681344 19.21342125 20.37681344 19.21342125 20.8125 16.5 C20.98007813 15.58089844 21.14765625 14.66179688 21.3203125 13.71484375 C21.50207031 12.64943359 21.50207031 12.64943359 21.6875 11.5625 C21.0275 11.5625 20.3675 11.5625 19.6875 11.5625 C19.6875 9.9125 19.6875 8.2625 19.6875 6.5625 C13.09933977 3.71722772 6.76545034 3.26063854 -0.3125 3.25 C-1.58637573 3.24226562 -1.58637573 3.24226562 -2.88598633 3.234375 C-7.60489473 3.03675644 -7.60489473 3.03675644 -11.3125 5.5625 C-11.98542501 7.52940374 -11.98542501 7.52940374 -12.4375 9.6875 C-12.870625 11.605625 -12.870625 11.605625 -13.3125 13.5625 C-12.3225 13.8925 -11.3325 14.2225 -10.3125 14.5625 C-10.3125 15.2225 -10.3125 15.8825 -10.3125 16.5625 C-8.9925 16.5625 -7.6725 16.5625 -6.3125 16.5625 C-6.3125 18.5425 -6.3125 20.5225 -6.3125 22.5625 C-5.6525 22.5625 -4.9925 22.5625 -4.3125 22.5625 C-4.6425 23.2225 -4.9725 23.8825 -5.3125 24.5625 C-7.3125 23.1875 -7.3125 23.1875 -9.3125 21.5625 C-9.3125 20.9025 -9.3125 20.2425 -9.3125 19.5625 C-9.9725 19.5625 -10.6325 19.5625 -11.3125 19.5625 C-14.71101899 15.73916614 -17.04901626 12.67036994 -17.6875 7.5625 C-16.52274817 -1.75551462 -7.20590939 -0.06457589 0 0 Z " fill="#77B6D8" transform="translate(50.3125,3.4375)"/>
<path d="M0 0 C2.875 1.5625 2.875 1.5625 5 4 C5.54226552 8.41559065 5.48836965 10.26744552 3 14 C-0.91427089 15.19392819 -4.71169474 15.47133119 -8.5625 14.0625 C-10.40944187 11.41253993 -10.55904841 9.13127621 -10.3828125 5.94140625 C-10 4 -10 4 -8.375 1.5 C-5.25991849 -0.4674199 -3.62829011 -0.5923739 0 0 Z " fill="#293445" transform="translate(184,9)"/>
<path d="M0 0 C2.34949004 2.04633004 2.87878102 3.40905746 3.5 6.4375 C2.78935537 10.07955372 0.64865736 11.62346497 -2 14 C-3.61088701 15.59741805 -5.21464639 17.20204502 -6.8125 18.8125 C-8.20833333 20.20833333 -9.60416667 21.60416667 -11 23 C-11.33 22.01 -11.66 21.02 -12 20 C-10.0625 17.3125 -10.0625 17.3125 -8 15 C-8.66 14.34 -9.32 13.68 -10 13 C-9.625 9.375 -9.625 9.375 -9 6 C-9.99 5.34 -10.98 4.68 -12 4 C-8.05897111 0.17839623 -5.48087566 -0.81198158 0 0 Z " fill="#333E50" transform="translate(290,29)"/>
<path d="M0 0 C0.94875 0.04125 1.8975 0.0825 2.875 0.125 C2.06360062 0.64688904 1.25220123 1.16877808 0.41621399 1.70648193 C-2.38324501 3.91211946 -2.38324501 3.91211946 -2.76423645 7.18756104 C-2.77089828 8.38669128 -2.77756012 9.58582153 -2.78442383 10.82128906 C-2.79490753 11.48511597 -2.80539124 12.14894287 -2.81619263 12.83288574 C-2.84491272 15.01927609 -2.83865583 17.20408006 -2.83203125 19.390625 C-2.84514836 20.90950502 -2.86045264 22.4283676 -2.87785339 23.94720459 C-2.91771587 27.93885493 -2.92789454 31.9300491 -2.93188477 35.921875 C-2.94121401 39.99753671 -2.97862612 44.07293014 -3.01367188 48.1484375 C-3.07826022 56.14062991 -3.1114899 64.13255881 -3.125 72.125 C-3.785 72.125 -4.445 72.125 -5.125 72.125 C-5.17128063 63.03269199 -5.20684737 53.94042434 -5.22862434 44.84802437 C-5.23907464 40.6263425 -5.25325645 36.40474105 -5.27587891 32.18310547 C-5.29756303 28.11122723 -5.30955923 24.03942647 -5.31475449 19.96749496 C-5.31845824 18.41170913 -5.32569046 16.85592768 -5.33646011 15.30017471 C-5.35091638 13.12596626 -5.35298044 10.95208058 -5.35205078 8.77783203 C-5.356492 7.53873077 -5.36093323 6.29962952 -5.36550903 5.02297974 C-5.02008424 0.8608323 -4.15692654 0.16627706 0 0 Z " fill="#232A38" transform="translate(87.125,4.875)"/>
<path d="M0 0 C0.33 0 0.66 0 1 0 C1.07419134 4.21749219 1.1286204 8.43463811 1.16479492 12.65258789 C1.17987589 14.08722552 1.2003438 15.52181708 1.22631836 16.95629883 C1.26273437 19.01915859 1.27973243 21.08140858 1.29296875 23.14453125 C1.3086792 24.38565674 1.32438965 25.62678223 1.34057617 26.90551758 C1 30 1 30 -0.3972168 31.8815918 C-2.9949285 33.69425247 -4.98868844 34.11897783 -8.125 33.75 C-10 33 -10 33 -12 30 C-12.22705078 26.99731445 -12.22705078 26.99731445 -12.1953125 23.36328125 C-12.18886719 22.06455078 -12.18242187 20.76582031 -12.17578125 19.42773438 C-12.1590706 18.05598693 -12.14214071 16.68424214 -12.125 15.3125 C-12.11496674 13.92904282 -12.10584149 12.54557873 -12.09765625 11.16210938 C-12.07404967 7.77456548 -12.04112037 4.38736928 -12 1 C-11.67 1 -11.34 1 -11 1 C-11 9.25 -11 17.5 -11 26 C-10.34 26.33 -9.68 26.66 -9 27 C-8.34 27.33 -7.68 27.66 -7 28 C-7 27.34 -7 26.68 -7 26 C-5.1875 25.375 -5.1875 25.375 -3 25 C-2.01 25.66 -1.02 26.32 0 27 C0 18.09 0 9.18 0 0 Z " fill="#4E5663" transform="translate(243,49)"/>
<path d="M0 0 C1.32 0.33 2.64 0.66 4 1 C3.67 3.64 3.34 6.28 3 9 C3.66 9 4.32 9 5 9 C3.63016497 12.16115776 3.0109362 12.9927092 0 15 C0 14.34 0 13.68 0 13 C-0.5775 13.350625 -1.155 13.70125 -1.75 14.0625 C-4.35801776 15.14917407 -5.39417629 14.93065133 -8 14 C-8 11 -8 11 -7 9 C-6.34 9 -5.68 9 -5 9 C-4.67 8.34 -4.34 7.68 -4 7 C-2.68088303 4.65843494 -1.33806736 2.33082701 0 0 Z " fill="#212D42" transform="translate(278,34)"/>
<path d="M0 0 C-0.10699219 0.56847656 -0.21398437 1.13695312 -0.32421875 1.72265625 C-1.53770697 9.53856424 0.79741278 14.39593437 5 21 C4.34 21.33 3.68 21.66 3 22 C2.18278283 20.89932004 1.37140549 19.79430269 0.5625 18.6875 C0.11003906 18.07261719 -0.34242187 17.45773438 -0.80859375 16.82421875 C-3.54317644 12.63716919 -3.15278516 8.81273252 -3 4 C-2.67 3.34 -2.34 2.68 -2 2 C-8.44028932 2.25010832 -12.00708992 2.70054965 -17 7 C-20.3125 7.25 -20.3125 7.25 -23 7 C-16.46753499 -0.57765941 -9.37487861 -0.41563501 0 0 Z " fill="#7B9DD2" transform="translate(30,4)"/>
<path d="M0 0 C1.98 0.66 3.96 1.32 6 2 C5.34 2.66 4.68 3.32 4 4 C3.32707499 5.96690374 3.32707499 5.96690374 2.875 8.125 C2.441875 10.043125 2.441875 10.043125 2 12 C2.99 12.33 3.98 12.66 5 13 C5 13.66 5 14.32 5 15 C6.32 15 7.64 15 9 15 C9 16.98 9 18.96 9 21 C9.66 21 10.32 21 11 21 C10.67 21.66 10.34 22.32 10 23 C8 21.625 8 21.625 6 20 C6 19.34 6 18.68 6 18 C5.34 18 4.68 18 4 18 C0.58013159 14.15264804 -1.82700878 11.1191425 -2.25 5.9375 C-2 3 -2 3 0 0 Z " fill="#6EAAE0" transform="translate(35,5)"/>
<path d="M0 0 C0.66 0 1.32 0 2 0 C3.14309533 12.43335999 2.80060118 24.55346563 2 37 C-0.46105545 33.30841682 -0.25575793 30.53376446 -0.1953125 26.26953125 C-0.1924826 25.51911057 -0.18965271 24.76868988 -0.18673706 23.99552917 C-0.17555062 21.60102325 -0.15044928 19.20689269 -0.125 16.8125 C-0.11496819 15.18815645 -0.10584269 13.56380703 -0.09765625 11.93945312 C-0.07561637 7.959491 -0.0410974 3.97980912 0 0 Z " fill="#5C6070" transform="translate(248,9)"/>
<path d="M0 0 C1.14510796 2.29021593 1.11561968 3.5361022 1.09765625 6.07910156 C1.09435303 6.92047668 1.0910498 7.76185181 1.08764648 8.62872314 C1.07934814 9.54015076 1.0710498 10.45157837 1.0625 11.390625 C1.05871338 12.327995 1.05492676 13.26536499 1.05102539 14.23114014 C1.03465755 18.24936208 1.00663756 22.26748321 0.97949219 26.28564453 C0.96136241 29.21646654 0.9492914 32.14727172 0.9375 35.078125 C0.92920166 35.98145569 0.92090332 36.88478638 0.91235352 37.81549072 C0.89488109 42.33264534 1.07317118 46.55377593 2 51 C1.01 50.67 0.02 50.34 -1 50 C-1.02526838 43.03996553 -1.04283222 36.0799428 -1.05493164 29.11987305 C-1.05997341 26.75007688 -1.06680665 24.38028385 -1.07543945 22.01049805 C-1.0875119 18.61245961 -1.09322971 15.21446215 -1.09765625 11.81640625 C-1.10281754 10.74975235 -1.10797882 9.68309845 -1.11329651 8.5841217 C-1.11337204 7.60318039 -1.11344757 6.62223907 -1.11352539 5.61157227 C-1.115746 4.74331314 -1.11796661 3.87505402 -1.12025452 2.98048401 C-1 1 -1 1 0 0 Z " fill="#4A515D" transform="translate(299,30)"/>
<path d="M0 0 C3 1 3 1 4 2.875 C4.33 3.57625 4.66 4.2775 5 5 C6.5412312 6.70921589 6.5412312 6.70921589 8 8 C7.01 8 6.02 8 5 8 C5 8.66 5 9.32 5 10 C8.72614153 8.88145414 8.72614153 8.88145414 11 6 C11.99 6.33 12.98 6.66 14 7 C13.67 7.99 13.34 8.98 13 10 C5.09747673 11.40151588 5.09747673 11.40151588 1.4375 10.0625 C-0.84666937 6.78521351 -0.25768124 3.92963896 0 0 Z " fill="#4D5562" transform="translate(174,13)"/>
<path d="M0 0 C0.99 0 1.98 0 3 0 C2.83483887 0.53230225 2.66967773 1.06460449 2.49951172 1.61303711 C1.88736 4.53826064 1.94117269 7.20298579 2.0078125 10.19140625 C2.02457031 11.38314453 2.04132813 12.57488281 2.05859375 13.80273438 C2.1029362 16.3132997 2.15504507 18.82373964 2.21484375 21.33398438 C2.22902344 22.52443359 2.24320313 23.71488281 2.2578125 24.94140625 C2.29092529 26.57638062 2.29092529 26.57638062 2.32470703 28.24438477 C2 31 2 31 0.65185547 32.83569336 C-1.49059211 34.34579275 -3.42764046 34.65238385 -6 35 C-6 34.01 -6 33.02 -6 32 C-4.02 31.34 -2.04 30.68 0 30 C0 20.1 0 10.2 0 0 Z " fill="#5C6470" transform="translate(149,48)"/>
<path d="M0 0 C-0.6875 2.4375 -0.6875 2.4375 -2 5 C-4.625 5.8125 -4.625 5.8125 -7 6 C-6.34 4.68 -5.68 3.36 -5 2 C-7.86724686 2.57344937 -8.8614515 2.8614515 -11 5 C-14.125 5.125 -14.125 5.125 -17 5 C-15.35648543 3.63823078 -13.68477344 2.31037934 -12 1 C-11.21625 0.38125 -10.4325 -0.2375 -9.625 -0.875 C-5.904307 -2.46958271 -3.68740153 -1.37373783 0 0 Z " fill="#394253" transform="translate(62,41)"/>
<path d="M0 0 C0.99 0 1.98 0 3 0 C2.67 1.65 2.34 3.3 2 5 C2.66 5.33 3.32 5.66 4 6 C4.3721042 7.32303717 4.70630173 8.65737935 5 10 C6.94090826 11.94090826 10.47293902 11.39919435 13.0625 11.5625 C14.35285156 11.64628906 15.64320312 11.73007813 16.97265625 11.81640625 C17.97167969 11.87699219 18.97070312 11.93757813 20 12 C20 12.33 20 12.66 20 13 C17.41554227 13.1081866 14.83562648 13.18737237 12.25 13.25 C11.52039062 13.28351563 10.79078125 13.31703125 10.0390625 13.3515625 C6.53845006 13.41521 4.41971114 13.28855141 1.5 11.28125 C-0.22961538 8.65079328 -0.43290431 7.35937334 -0.25 4.25 C-0.21390625 3.45078125 -0.1778125 2.6515625 -0.140625 1.828125 C-0.09421875 1.22484375 -0.0478125 0.6215625 0 0 Z " fill="#656B77" transform="translate(1,69)"/>
<path d="M0 0 C0.33 0.99 0.66 1.98 1 3 C0.34 3.66 -0.32 4.32 -1 5 C-1.41609607 7.49368688 -1.74498045 9.92744645 -2 12.4375 C-2.73156425 19.59734637 -2.73156425 19.59734637 -5 23 C-6.41435292 14.83765001 -5.9436551 8.46999478 -1.3125 1.4375 C-0.879375 0.963125 -0.44625 0.48875 0 0 Z " fill="#829DD4" transform="translate(6,11)"/>
<path d="M0 0 C1.98 0.99 3.96 1.98 6 3 C5.65514457 5.8842454 5.21744593 6.8207818 2.93359375 8.703125 C2.10988281 9.21359375 1.28617188 9.7240625 0.4375 10.25 C-0.38878906 10.77078125 -1.21507812 11.2915625 -2.06640625 11.828125 C-3.02353516 12.40820312 -3.02353516 12.40820312 -4 13 C-4.66 12.34 -5.32 11.68 -6 11 C-4.865625 10.443125 -3.73125 9.88625 -2.5625 9.3125 C0.55468831 7.5777124 0.55468831 7.5777124 1.9375 4.25 C1.958125 3.5075 1.97875 2.765 2 2 C1.34 2 0.68 2 0 2 C0 1.34 0 0.68 0 0 Z " fill="#7EA7D5" transform="translate(42,32)"/>
<path d="M0 0 C0.99 0 1.98 0 3 0 C3.66 1.98 4.32 3.96 5 6 C2.69 8.31 0.38 10.62 -2 13 C-2.33 12.01 -2.66 11.02 -3 10 C-1.0625 7.3125 -1.0625 7.3125 1 5 C0.34 4.34 -0.32 3.68 -1 3 C-0.67 2.01 -0.34 1.02 0 0 Z " fill="#444E5E" transform="translate(281,39)"/>
<path d="M0 0 C3.96 0 7.92 0 12 0 C12 0.33 12 0.66 12 1 C11.31292969 1.13277344 10.62585938 1.26554687 9.91796875 1.40234375 C8.56638672 1.66724609 8.56638672 1.66724609 7.1875 1.9375 C5.84751953 2.19853516 5.84751953 2.19853516 4.48046875 2.46484375 C1.88602829 2.97741153 1.88602829 2.97741153 -1 4 C-2.22520264 7.00847418 -2.22520264 7.00847418 -3 10 C-3.66 8.68 -4.32 7.36 -5 6 C-4.34 5.67 -3.68 5.34 -3 5 C-3 4.34 -3 3.68 -3 3 C-2.34 3 -1.68 3 -1 3 C-0.67 2.01 -0.34 1.02 0 0 Z " fill="#515867" transform="translate(210,41)"/>
<path d="M0 0 C1.32 0.33 2.64 0.66 4 1 C4 1.66 4 2.32 4 3 C5.32 3 6.64 3 8 3 C8 4.98 8 6.96 8 9 C8.66 9 9.32 9 10 9 C9.67 9.66 9.34 10.32 9 11 C7 9.625 7 9.625 5 8 C5 7.34 5 6.68 5 6 C4.34 6 3.68 6 3 6 C0 2.53846154 0 2.53846154 0 0 Z " fill="#79AFDE" transform="translate(36,17)"/>
<path d="M0 0 C1.65 1.65 3.3 3.3 5 5 C4.01 5.495 4.01 5.495 3 6 C3 13.59 3 21.18 3 29 C2.67 29 2.34 29 2 29 C1.97494385 28.26362305 1.9498877 27.52724609 1.92407227 26.76855469 C1.80795727 23.42886622 1.68530082 20.08944903 1.5625 16.75 C1.52318359 15.59113281 1.48386719 14.43226562 1.44335938 13.23828125 C1.40146484 12.12324219 1.35957031 11.00820313 1.31640625 9.859375 C1.27974854 8.83295898 1.24309082 7.80654297 1.20532227 6.74902344 C1.02717872 4.36389113 0.67222637 2.28700501 0 0 Z " fill="#1D2435" transform="translate(230,46)"/>
<path d="M0 0 C0.33 0.99 0.66 1.98 1 3 C-1.15343189 6.23014784 -2.27059611 7.75686537 -6 9 C-6.33 9.99 -6.66 10.98 -7 12 C-7.99 11.34 -8.98 10.68 -10 10 C-8.88121617 8.82737096 -7.75476949 7.66204862 -6.625 6.5 C-5.68527344 5.52546875 -5.68527344 5.52546875 -4.7265625 4.53125 C-3 3 -3 3 -1 3 C-0.67 2.01 -0.34 1.02 0 0 Z " fill="#46515E" transform="translate(277,34)"/>
<path d="M0 0 C0.928125 0.20625 1.85625 0.4125 2.8125 0.625 C2.1525 1.945 1.4925 3.265 0.8125 4.625 C0.4825 3.965 0.1525 3.305 -0.1875 2.625 C-0.8475 2.625 -1.5075 2.625 -2.1875 2.625 C-2.5175 4.275 -2.8475 5.925 -3.1875 7.625 C-3.8475 7.295 -4.5075 6.965 -5.1875 6.625 C-5.8125 4.0625 -5.8125 4.0625 -6.1875 1.625 C-3.1875 -0.375 -3.1875 -0.375 0 0 Z " fill="#424D5B" transform="translate(182.1875,28.375)"/>
<path d="M0 0 C2.475 0.99 2.475 0.99 5 2 C5 3.65 5 5.3 5 7 C2.69 7 0.38 7 -2 7 C-2 6.01 -2 5.02 -2 4 C-1.34 4 -0.68 4 0 4 C-0.33 3.01 -0.66 2.02 -1 1 C-0.67 0.67 -0.34 0.34 0 0 Z " fill="#202B40" transform="translate(254,74)"/>
<path d="M0 0 C3.48331435 3.01887244 4.79157144 5.56909529 6 10 C4.68 9.67 3.36 9.34 2 9 C2.33 8.01 2.66 7.02 3 6 C2.01 6 1.02 6 0 6 C-0.33 6.66 -0.66 7.32 -1 8 C-1.33 6.35 -1.66 4.7 -2 3 C-1.34 3 -0.68 3 0 3 C0 2.01 0 1.02 0 0 Z " fill="#3D4655" transform="translate(237,37)"/>
<path d="M0 0 C-0.75 2.9375 -0.75 2.9375 -2 6 C-4.125 6.875 -4.125 6.875 -6 7 C-7.33332095 4.3333581 -6.67102033 2.83319697 -6 0 C-2.25 -1.125 -2.25 -1.125 0 0 Z " fill="#2E394C" transform="translate(292,31)"/>
<path d="M0 0 C0.66 0.33 1.32 0.66 2 1 C2.75 3.9375 2.75 3.9375 3 7 C2.34 7.66 1.68 8.32 1 9 C0.01 9 -0.98 9 -2 9 C-2 6.36 -2 3.72 -2 1 C-1.34 0.67 -0.68 0.34 0 0 Z " fill="#3B4452" transform="translate(168,30)"/>
<path d="M0 0 C0.99 0 1.98 0 3 0 C3 2.31 3 4.62 3 7 C1.35 7.33 -0.3 7.66 -2 8 C-1.47731534 5.23723823 -0.89130413 2.6739124 0 0 Z " fill="#212B3E" transform="translate(327,31)"/>
<path d="M0 0 C-0.33 0.99 -0.66 1.98 -1 3 C-2.1446875 2.938125 -2.1446875 2.938125 -3.3125 2.875 C-6.22718416 2.77919176 -6.22718416 2.77919176 -9 5 C-9.99 4.67 -10.98 4.34 -12 4 C-7.99899414 0.12023674 -5.51903037 -0.43286513 0 0 Z " fill="#5C606D" transform="translate(290,29)"/>
<path d="M0 0 C0.99 0 1.98 0 3 0 C3 1.65 3 3.3 3 5 C6.96 5 10.92 5 15 5 C15 5.33 15 5.66 15 6 C12.89695523 6.1080023 10.79233091 6.18558987 8.6875 6.25 C6.92986328 6.31960937 6.92986328 6.31960937 5.13671875 6.390625 C2 6 2 6 0.08203125 3.984375 C-0.27503906 3.32953125 -0.63210937 2.6746875 -1 2 C-0.67 1.34 -0.34 0.68 0 0 Z " fill="#212C40" transform="translate(5,75)"/>
<path d="M0 0 C2.4375 0.6875 2.4375 0.6875 4.4375 1.6875 C5.0625 3.75 5.0625 3.75 5.4375 5.6875 C4.7775 5.6875 4.1175 5.6875 3.4375 5.6875 C3.1075 5.0275 2.7775 4.3675 2.4375 3.6875 C1.4475 4.1825 1.4475 4.1825 0.4375 4.6875 C-1.59394641 3.75303465 -3.59783587 2.75525224 -5.5625 1.6875 C-2.5625 -0.3125 -2.5625 -0.3125 0 0 Z " fill="#545B6B" transform="translate(305.5625,28.3125)"/>
<path d="M0 0 C2 1.8125 2 1.8125 4 4 C4 4.99 4 5.98 4 7 C5.98 7 7.96 7 10 7 C10.33 7.66 10.66 8.32 11 9 C8.35963647 9.97791242 7.12733368 10.03638105 4.375 9.25 C2 8 2 8 0 5 C-0.125 2.3125 -0.125 2.3125 0 0 Z " fill="#727781" transform="translate(248,73)"/>
<path d="M0 0 C0.33 1.32 0.66 2.64 1 4 C1.99 3.67 2.98 3.34 4 3 C4.33 3.99 4.66 4.98 5 6 C3.6875 7.5 3.6875 7.5 2 9 C1.01 9 0.02 9 -1 9 C-0.67 6.03 -0.34 3.06 0 0 Z " fill="#253041" transform="translate(194,70)"/>
<path d="M0 0 C0.33 0 0.66 0 1 0 C1.6875 2.8125 1.6875 2.8125 2 6 C0.40238809 8.57393029 -0.750546 8.93618619 -3.6875 9.6875 C-4.8321875 9.8421875 -4.8321875 9.8421875 -6 10 C-6 9.01 -6 8.02 -6 7 C-4.02 6.34 -2.04 5.68 0 5 C0 3.35 0 1.7 0 0 Z " fill="#575D6A" transform="translate(149,73)"/>
<path d="M0 0 C1.32 0 2.64 0 4 0 C4 0.66 4 1.32 4 2 C4.763125 2.103125 5.52625 2.20625 6.3125 2.3125 C9.17059424 3.04364039 10.15742885 3.76951913 12 6 C7.01208429 5.52496041 3.9767259 4.0298864 0 1 C0 0.67 0 0.34 0 0 Z " fill="#7E9BD4" transform="translate(7,43)"/>
<path d="M0 0 C0.89130413 2.6739124 1.47731534 5.23723823 2 8 C-1.16115776 6.63016497 -1.9927092 6.0109362 -4 3 C-2.68 2.01 -1.36 1.02 0 0 Z " fill="#5A6673" transform="translate(41,48)"/>
<path d="M0 0 C0.99 0 1.98 0 3 0 C2.34 1.65 1.68 3.3 1 5 C-1.31 5 -3.62 5 -6 5 C-5.195625 4.360625 -4.39125 3.72125 -3.5625 3.0625 C-1.7249496 1.59396498 -1.7249496 1.59396498 0 0 Z " fill="#4B5462" transform="translate(51,41)"/>
<path d="M0 0 C1.98 0 3.96 0 6 0 C6 0.66 6 1.32 6 2 C6.66 2 7.32 2 8 2 C8.33 3.98 8.66 5.96 9 8 C8.2575 7.236875 7.515 6.47375 6.75 5.6875 C4.5736677 3.5606298 2.47832204 1.7440044 0 0 Z " fill="#6B737C" transform="translate(222,42)"/>
<path d="M0 0 C0.99 0.33 1.98 0.66 3 1 C3 2.65 3 4.3 3 6 C1.35 5.67 -0.3 5.34 -2 5 C-1.125 1.125 -1.125 1.125 0 0 Z " fill="#333D4D" transform="translate(240,75)"/>
<path d="M0 0 C1.50433594 0.01353516 1.50433594 0.01353516 3.0390625 0.02734375 C3.80992187 0.03894531 4.58078125 0.05054688 5.375 0.0625 C5.375 0.3925 5.375 0.7225 5.375 1.0625 C3.77158445 1.39942785 2.16723445 1.73191093 0.5625 2.0625 C-0.33082031 2.248125 -1.22414062 2.43375 -2.14453125 2.625 C-4.625 3.0625 -4.625 3.0625 -7.625 3.0625 C-7.625 2.4025 -7.625 1.7425 -7.625 1.0625 C-4.98041621 -0.25979189 -2.94738699 -0.03427194 0 0 Z " fill="#555C6B" transform="translate(161.625,40.9375)"/>
<path d="M0 0 C2.0625 2.25 2.0625 2.25 4 5 C3.75 7.3125 3.75 7.3125 3 9 C0.9375 6.1875 0.9375 6.1875 -1 3 C-0.67 2.01 -0.34 1.02 0 0 Z " fill="#839BD8" transform="translate(3,34)"/>
<path d="M0 0 C1.11375 0.556875 1.11375 0.556875 2.25 1.125 C1.92 2.115 1.59 3.105 1.25 4.125 C-1.39 3.135 -4.03 2.145 -6.75 1.125 C-4.02098495 -0.69434337 -3.21400584 -1.02263822 0 0 Z " fill="#67B5D7" transform="translate(66.75,5.875)"/>
<path d="M0 0 C0.99 0.66 1.98 1.32 3 2 C0.75 3.625 0.75 3.625 -2 5 C-4.3125 4.1875 -4.3125 4.1875 -6 3 C-4.02 2.01 -2.04 1.02 0 0 Z " fill="#515A66" transform="translate(129,78)"/>
<path d="M0 0 C2.5 2.3125 2.5 2.3125 5 5 C5 5.99 5 6.98 5 8 C4.34 8.66 3.68 9.32 3 10 C3 8.02 3 6.04 3 4 C2.01 3.67 1.02 3.34 0 3 C0 2.01 0 1.02 0 0 Z " fill="#565E6C" transform="translate(69,45)"/>
<path d="M0 0 C0.91007813 0.00902344 1.82015625 0.01804687 2.7578125 0.02734375 C3.45648438 0.03894531 4.15515625 0.05054687 4.875 0.0625 C1.85350056 1.62777784 -0.70574001 2.71180667 -4.125 3.0625 C-5.115 2.4025 -6.105 1.7425 -7.125 1.0625 C-4.60024538 -0.19987731 -2.81299534 -0.03606404 0 0 Z " fill="#5E656F" transform="translate(162.125,28.9375)"/>
<path d="M0 0 C0.33 0.66 0.66 1.32 1 2 C0.01 2.495 0.01 2.495 -1 3 C-1 3.99 -1 4.98 -1 6 C-2.65 6.33 -4.3 6.66 -6 7 C-4.60667426 3.63279613 -3.0210714 2.0140476 0 0 Z " fill="#6B7183" transform="translate(10,58)"/>
<path d="M0 0 C0.66 0.33 1.32 0.66 2 1 C2 1.66 2 2.32 2 3 C1.34 3 0.68 3 0 3 C-0.66 4.98 -1.32 6.96 -2 9 C-2.66 7.68 -3.32 6.36 -4 5 C-3.34 4.67 -2.68 4.34 -2 4 C-2 3.34 -2 2.68 -2 2 C-1.34 2 -0.68 2 0 2 C0 1.34 0 0.68 0 0 Z " fill="#444C5B" transform="translate(209,42)"/>
<path d="M0 0 C2.6875 -0.3125 2.6875 -0.3125 5 0 C2.47211993 2.79872437 0.79588866 4.45773019 -3 5 C-1.8125 2.5 -1.8125 2.5 0 0 Z " fill="#232E46" transform="translate(54,42)"/>
<path d="M0 0 C0.66 0.33 1.32 0.66 2 1 C1.34 2.65 0.68 4.3 0 6 C-1.65 5.67 -3.3 5.34 -5 5 C-5 4.34 -5 3.68 -5 3 C-3.68 3 -2.36 3 -1 3 C-0.67 2.01 -0.34 1.02 0 0 Z " fill="#62A9D7" transform="translate(55,27)"/>
<path d="M0 0 C3.0625 0.1875 3.0625 0.1875 5.0625 2.1875 C2.14767222 2.99717438 0.60136783 3.40595993 -2.25 2.25 C-2.806875 1.899375 -3.36375 1.54875 -3.9375 1.1875 C-2.9375 0.1875 -2.9375 0.1875 0 0 Z " fill="#565D65" transform="translate(180.9375,8.8125)"/>
<path d="M0 0 C1.98 0.66 3.96 1.32 6 2 C6 2.99 6 3.98 6 5 C4.02 4.34 2.04 3.68 0 3 C0 2.01 0 1.02 0 0 Z " fill="#5A626D" transform="translate(194,78)"/>
<path d="M0 0 C-0.639375 0.28875 -1.27875 0.5775 -1.9375 0.875 C-4.15206079 1.82823451 -4.15206079 1.82823451 -5 4 C-5 3.01 -5 2.02 -5 1 C-6.32 1.33 -7.64 1.66 -9 2 C-6.98558063 -2.02883874 -3.72407517 -0.90585612 0 0 Z " fill="#666D79" transform="translate(203,29)"/>
<path d="" fill="#FFFFFF" transform="translate(0,0)"/>
<path d="" fill="#FFFFFF" transform="translate(0,0)"/>
<path d="" fill="#FFFFFF" transform="translate(0,0)"/>
<path d="" fill="#FFFFFF" transform="translate(0,0)"/>
<path d="" fill="#FFFFFF" transform="translate(0,0)"/>
</svg>
